<svg width="24" height="29" viewBox="0 0 24 29" fill="none" xmlns="http://www.w3.org/2000/svg">
<g clip-path="url(#clip0)">
<path d="M16.1809 6.52894C15.8387 5.55737 14.7985 4.99397 13.7793 5.2601C13.1092 5.4349 12.6076 5.92669 12.3943 6.53116L16.1809 6.52894Z" fill="black"/>
<path d="M21.7313 7.14941C21.731 7.14941 21.7306 7.14941 21.7305 7.14941L4.828 7.15906C4.0191 7.15951 3.35694 7.81725 3.35642 8.62038L3.34985 19.9277C3.34933 20.7307 4.01026 21.3875 4.81861 21.3875C4.81898 21.3875 4.81932 21.3875 4.8195 21.3875L21.722 21.3779C22.5307 21.3774 23.1927 20.7196 23.1934 19.9165L23.1999 8.60915C23.2004 7.80617 22.5397 7.14941 21.7313 7.14941ZM22.4624 12.4834C17.3098 13.1116 14.7088 16.0182 13.4492 18.2613C10.8799 13.8372 5.24607 14.0329 4.08867 14.1242L4.09186 8.62093C4.0922 8.21772 4.42231 7.88964 4.82835 7.88928L21.7305 7.87963H21.7313C21.9259 7.87963 22.1096 7.95592 22.2489 8.09434C22.3882 8.23276 22.4648 8.41552 22.4647 8.6088L22.4624 12.4834Z" fill="black"/>
<path d="M17.9326 2.54281C18.2684 2.54281 18.5629 2.76698 18.6484 3.08806L19.5357 6.42047L20.2961 6.41995L19.3592 2.90123C19.1851 2.24792 18.5847 1.8125 17.9324 1.8125C17.8096 1.8125 17.6848 1.82798 17.5611 1.8602L1.09494 6.15391C0.312954 6.3579 -0.15806 7.16008 0.0486915 7.93677L2.6161 17.5777L2.61769 14.7279L2.27289 13.4333C2.35715 13.4038 2.47307 13.3648 2.61858 13.3197L2.61874 12.9384C2.43378 12.9935 2.28617 13.0423 2.17872 13.0794L0.759518 7.74985C0.709786 7.56338 0.737043 7.36752 0.836168 7.19849C0.935457 7.02945 1.09353 6.90927 1.28168 6.86033L17.7478 2.56661C17.8083 2.55077 17.8707 2.54281 17.9326 2.54281Z" fill="black"/>
<path d="M17.2188 13.4126C18.32 13.4126 19.2126 12.5199 19.2126 11.4188C19.2126 10.3177 18.32 9.42505 17.2188 9.42505C16.1177 9.42505 15.2251 10.3177 15.2251 11.4188C15.2251 12.5199 16.1177 13.4126 17.2188 13.4126Z" fill="black"/>
</g>
<defs>
<clipPath id="clip0">
<rect width="23.2" height="29" fill="white"/>
</clipPath>
</defs>
</svg>
